<?xml version="1.0" standalone="no"?>
<!DOCTYPE svg PUBLIC "-//W3C//DTD SVG 20010904//EN"
 "http://www.w3.org/TR/2001/REC-SVG-20010904/DTD/svg10.dtd">
<svg version="1.0" xmlns="http://www.w3.org/2000/svg"
 width="6rem" height="6rem" viewBox="0 0 180.000000 180.000000"
 preserveAspectRatio="xMidYMid meet">

<g transform="translate(0.000000,225.000000) scale(0.100000,-0.100000)"
fill="#fff" stroke="none">
<path d="M440 1635 c0 -52 14 -58 50 -20 25 27 83 50 100 40 6 -4 10 -67 10
-163 0 -126 -3 -162 -16 -180 -8 -12 -22 -22 -30 -22 -8 0 -14 -4 -14 -10 0
-6 42 -10 105 -10 63 0 105 4 105 10 0 6 -4 10 -9 10 -5 0 -17 7 -25 16 -13
13 -16 44 -16 179 0 90 3 166 8 168 16 11 65 -7 92 -34 43 -43 60 -38 60 16
l0 45 -210 0 -210 0 0 -45z"/>
<path d="M920 1670 c0 -5 8 -18 18 -28 16 -16 142 -346 142 -372 0 -6 14 -10
30 -10 17 0 30 5 30 11 0 25 83 239 90 232 6 -7 76 -196 86 -230 2 -7 14 -13
28 -13 23 0 28 12 86 184 34 102 68 190 76 196 30 26 16 40 -41 40 -59 0 -72
-14 -35 -38 11 -7 20 -22 20 -34 0 -25 -62 -218 -70 -218 -9 0 -87 234 -83
248 3 6 11 12 19 12 8 0 14 7 14 15 0 12 -17 15 -95 15 -93 0 -115 -9 -76 -29
10 -6 26 -29 35 -52 16 -40 16 -43 -11 -125 -15 -46 -30 -84 -34 -84 -3 0 -24
54 -47 119 -40 119 -40 120 -21 142 10 12 19 24 19 26 0 1 -40 3 -90 3 -53 0
-90 -4 -90 -10z"/>
<path d="M1590 1667 c0 -7 10 -17 23 -22 21 -10 22 -16 25 -155 3 -164 0 -186
-28 -195 -47 -15 -13 -25 85 -25 63 0 105 4 105 10 0 6 -6 10 -13 10 -8 0 -21
8 -30 18 -14 16 -17 43 -17 161 0 148 7 181 40 181 11 0 20 7 20 15 0 12 -18
15 -105 15 -78 0 -105 -3 -105 -13z"/>
<path d="M440 908 c0 -164 4 -277 9 -268 33 56 301 544 301 547 0 2 -70 3
-155 3 l-155 0 0 -282z m260 247 c0 -7 -212 -388 -222 -400 -4 -5 -8 84 -8
198 l0 207 115 0 c63 0 115 -2 115 -5z"/>
<path d="M649 913 c-84 -152 -155 -280 -157 -285 -2 -4 63 -8 145 -8 l148 0
120 217 c66 119 137 247 158 285 l38 68 -149 0 -148 0 -155 -277z m364 180
c-20 -38 -85 -153 -144 -258 l-106 -190 -112 -3 c-68 -2 -111 1 -111 7 0 6 15
36 34 68 18 32 81 145 140 251 l108 192 114 0 115 0 -38 -67z"/>
<path d="M999 913 c-84 -152 -155 -280 -157 -285 -2 -4 63 -8 145 -8 l148 0
120 217 c66 119 137 247 158 285 l39 68 -149 0 -149 0 -155 -277z m364 180
c-20 -38 -85 -153 -144 -258 l-106 -190 -112 -3 c-62 -1 -111 1 -111 6 0 5 63
123 141 261 l141 251 114 0 115 0 -38 -67z"/>
<path d="M1346 911 c-86 -154 -156 -282 -156 -285 0 -4 66 -5 147 -4 l146 3
129 230 c71 127 142 254 159 283 l29 52 -149 0 -148 0 -157 -279z"/>
</g>
</svg>
